<?xml version="1.0" encoding="utf-8"?>
<!-- Generator: Adobe Illustrator 22.0.1, SVG Export Plug-In . SVG Version: 6.00 Build 0)  -->
<svg version="1.1" id="forum_illustration" xmlns="http://www.w3.org/2000/svg" xmlns:xlink="http://www.w3.org/1999/xlink" x="0px"
	 y="0px" viewBox="0 0 102 128" style="enable-background:new 0 0 102 128;" xml:space="preserve" height="20px">
<style type="text/css">
	.st0{fill:#55C58F;}
</style>
<title>checkbox_filled</title>
<path class="st0" d="M51,15.4C24.2,15.4,2.4,37.2,2.4,64s21.7,48.6,48.6,48.6S99.6,90.8,99.6,64l0,0C99.5,37.2,77.8,15.5,51,15.4z
	 M66.9,55.2L48.9,77.9c-0.8,1-1.9,1.5-3.1,1.6h-0.1c-1.2,0-2.3-0.5-3.1-1.4l-7.4-8.5c-1.4-1.8-1.2-4.3,0.6-5.8
	c1.7-1.4,4.1-1.2,5.6,0.4l4.1,4.8l14.9-18.9c1.5-1.7,4.1-1.9,5.8-0.5C67.9,51,68.1,53.4,66.9,55.2L66.9,55.2z"/>
</svg>
