<?xml version="1.0" encoding="utf-8"?>
<!-- Generator: Adobe Illustrator 22.0.1, SVG Export Plug-In . SVG Version: 6.00 Build 0)  -->
<svg version="1.1" id="Layer_1" xmlns="http://www.w3.org/2000/svg" xmlns:xlink="http://www.w3.org/1999/xlink" x="0px" y="0px"
	 viewBox="0 0 106 128" style="enable-background:new 0 0 106 128;" xml:space="preserve" height="20px">
<style type="text/css">
	.st1{fill:#DD3B4C;}
</style>
<style type="text/css">
	.st0{fill:#fff;}
</style>
<title>add_circle</title>
<path class="st1" d="M56,112.6C29.2,112.6,7.4,90.8,7.4,64S29.2,15.4,56,15.4s48.6,21.7,48.6,48.6l0,0
	C104.5,90.8,82.8,112.5,56,112.6z M56,112.6C29.2,112.6,7.4,90.8,7.4,64S29.2,15.4,56,15.4s48.6,21.7,48.6,48.6l0,0
	C104.5,90.8,82.8,112.5,56,112.6z"/>
<path class="st0" transform="translate(15) rotate(45 50 50)" d="M74.1,59.8h-17v-17c0.1-2.3-1.7-4.2-4-4.4c-2.3-0.1-4.2,1.7-4.4,4c0,0.1,0,0.3,0,0.4v17h-17
	c-2.3,0.1-4.1,2.1-4,4.4c0.1,2.1,1.8,3.8,4,4h17v17c-0.1,2.3,1.7,4.2,4,4.4c2.3,0.1,4.2-1.7,4.4-4c0-0.1,0-0.3,0-0.4v-17h17
	c2.3-0.1,4.1-2.1,4-4.4C78,61.7,76.3,59.9,74.1,59.8z"/>
</svg>
